<?xml version="1.0" encoding="UTF-8" standalone="no"?>
<!-- Created with Inkscape (http://www.inkscape.org/) -->

<svg
   xmlns:dc="http://purl.org/dc/elements/1.1/"
   xmlns:cc="http://creativecommons.org/ns#"
   xmlns:rdf="http://www.w3.org/1999/02/22-rdf-syntax-ns#"
   xmlns:svg="http://www.w3.org/2000/svg"
   xmlns="http://www.w3.org/2000/svg"
   version="1.1"
   width="24"
   height="24"
   id="svg2">
  <defs
     id="defs4" />
  <metadata
     id="metadata7">
    <rdf:RDF>
      <cc:Work
         rdf:about="">
        <dc:format>image/svg+xml</dc:format>
        <dc:type
           rdf:resource="http://purl.org/dc/dcmitype/StillImage" />
        <dc:title></dc:title>
      </cc:Work>
    </rdf:RDF>
  </metadata>
  <g
     id="layer7"
     style="display:inline">
    <path
       d="M 22,6 C 19.5,3.5 17,2.0044643 11.5,2.5044643"
       id="path5151-4"
       style="fill:none;stroke:#07aeff;stroke-width:0.5;stroke-linecap:butt;stroke-linejoin:miter;stroke-miterlimit:4;stroke-opacity:1;stroke-dasharray:none;stroke-dashoffset:0;display:inline" />
    <path
       d="m 11.491071,20.482142 c -2.9999996,-2.5 -4.9999996,-4 -10.49999962,-3.5"
       id="path5151-4-3"
       style="fill:none;stroke:#07aeff;stroke-width:0.5;stroke-linecap:butt;stroke-linejoin:miter;stroke-miterlimit:4;stroke-opacity:1;stroke-dasharray:none;stroke-dashoffset:0;display:inline" />
    <path
       d="m 13,11.5 a 1.5,1.5 0 1 1 -3,0 1.5,1.5 0 1 1 3,0 z"
       transform="translate(-3.8653873e-8,-8.9955357)"
       id="path5145-6"
       style="fill:#000000;fill-opacity:1;stroke:none;display:inline" />
    <path
       d="m 13,11.5 a 1.5,1.5 0 1 1 -3,0 1.5,1.5 0 1 1 3,0 z"
       transform="translate(-0.00892861,8.982143)"
       id="path5145-6-1"
       style="fill:#000000;fill-opacity:1;stroke:none;display:inline" />
    <path
       d="m 11.5,5.5 2,3 -1.5,0 0,6 1.5,0 -2,3 -2,-3 1.5,0 0,-6 -1.5,0 z"
       id="path5336"
       style="fill:#000000;fill-opacity:1;stroke:none" />
  </g>
</svg>
