<?xml version="1.0" encoding="UTF-8" standalone="no"?>
<!-- Created with Inkscape (http://www.inkscape.org/) -->

<svg
   xmlns:dc="http://purl.org/dc/elements/1.1/"
   xmlns:cc="http://creativecommons.org/ns#"
   xmlns:rdf="http://www.w3.org/1999/02/22-rdf-syntax-ns#"
   xmlns:svg="http://www.w3.org/2000/svg"
   xmlns="http://www.w3.org/2000/svg"
   version="1.1"
   width="24"
   height="24"
   id="svg2">
  <defs
     id="defs4" />
  <metadata
     id="metadata7">
    <rdf:RDF>
      <cc:Work
         rdf:about="">
        <dc:format>image/svg+xml</dc:format>
        <dc:type
           rdf:resource="http://purl.org/dc/dcmitype/StillImage" />
        <dc:title></dc:title>
      </cc:Work>
    </rdf:RDF>
  </metadata>
  <g
     transform="translate(0,-1028.3622)"
     id="layer1"
     style="display:inline">
    <path
       d="M 22,15 C 19.5,12.5 17,11 11.5,11.5 8.5,9 6.5,7.5 1,8"
       transform="translate(0,1028.3622)"
       id="path5151"
       style="fill:none;stroke:#07aeff;stroke-width:0.5;stroke-linecap:butt;stroke-linejoin:miter;stroke-miterlimit:4;stroke-opacity:1;stroke-dasharray:none;stroke-dashoffset:0" />
    <path
       d="m 13,11.5 a 1.5,1.5 0 1 1 -3,0 1.5,1.5 0 1 1 3,0 z"
       transform="translate(0,1028.3622)"
       id="path5145"
       style="fill:#000000;fill-opacity:1;stroke:none" />
    <path
       d="m 12,23 -1,0 0,-6 -1.5,0 2,-3 2,3 -1.5,0 0,6"
       transform="translate(0,1028.3622)"
       id="path5147"
       style="fill:#000000;fill-opacity:1;stroke:none" />
    <path
       d="m 12,1 -1,0 0,5 -1.5,0 2,3 2,-3 -1.5,0 z"
       transform="translate(0,1028.3622)"
       id="path5149"
       style="fill:#000000;fill-opacity:1;stroke:none" />
  </g>
</svg>
